#!OML:ASF Y:\EmotionMaleHayes\Project 1\Capture day 1\Session 1\Male1.ASF
:FULLY-SPECIFIED
:DEGREES
79
root -28.1918 16.9702 1.02339 28.9657 79.5953 25.5837
lowerback 6.7672 1.32941 -6.90968
upperback 1.90301 1.33023 -1.05954
thorax -1.95026 0.703098 2.66708
lowerneck -22.7657 4.00828 3.9591
upperneck 25.1608 5.09775 -2.21764
head 12.2566 2.42036 -0.613419
rclavicle -1.14301e-014 1.97294e-014
rhumerus -34.0575 6.28466 -90.3619
rradius 32.9528
rwrist 6.59352
rhand -10.4753 -28.3076
rfingers 7.12502
rthumb 15.5259 -57.7043
lclavicle -1.14301e-014 1.97294e-014
lhumerus -25.6896 -17.4561 92.2527
lradius 27.8582
lwrist -4.81924
lhand -19.739 -25.2488
lfingers 7.12502
lthumb 6.59178 4.62857
rfemur 5.507 -4.90162 9.52278
rtibia 9.18427
rfoot -23.0337 -4.21926
rtoes 7.20339
lfemur 6.68817 3.21212 -17.9045
ltibia 7.45497
lfoot -20.5815 9.8809
ltoes -11.4577
80
root -28.1558 16.9654 1.0305 28.9444 79.4364 25.5062
lowerback 6.78745 1.34853 -6.9624
upperback 1.87697 1.34826 -1.10675
thorax -1.99029 0.714133 2.64522
lowerneck -22.8185 4.05207 4.09236
upperneck 25.087 5.15362 -2.38713
head 12.2496 2.4334 -0.68935
rclavicle 1.81888e-014 -6.26172e-015
rhumerus -34.3456 6.33581 -90.3667
rradius 32.954
rwrist 6.48594
rhand -10.5502 -28.3541
rfingers 7.12502
rthumb 15.4538 -57.7564
lclavicle 1.81888e-014 -6.26172e-015
lhumerus -25.4214 -17.9656 92.115
lradius 28.169
lwrist -4.31398
lhand -19.7967 -25.101
lfingers 7.12502
lthumb 6.53608 4.77816
rfemur 5.48135 -4.81227 9.45771
rtibia 9.37009
rfoot -23.2875 -4.09804
rtoes 7.42945
lfemur 6.93972 3.0224 -18.06
ltibia 7.13318
lfoot -20.7369 10.069
ltoes -11.7282
81
root -28.1145 16.9588 1.0403 28.3212 79.3553 24.8166
lowerback 6.73475 1.3387 -6.8635
upperback 1.87699 1.34576 -1.12428
thorax -1.95831 0.711513 2.57311
lowerneck -22.9622 4.10932 4.10823
upperneck 25.0957 5.22185 -2.39181
head 12.2845 2.46168 -0.679503
rclavicle 8.41108e-015 1.55052e-014
rhumerus -34.566 6.46359 -90.39
rradius 32.9909
rwrist 6.17136
rhand -10.3822 -28.9105
rfingers 7.12502
rthumb 15.6156 -58.3002
lclavicle 8.41108e-015 1.55052e-014
lhumerus -25.0599 -18.1469 91.8461
lradius 28.4783
lwrist -4.00354
lhand -19.6415 -25.0862
lfingers 7.12502
lthumb 6.68587 4.7882
rfemur 5.55928 -4.72801 9.57498
rtibia 9.38213
rfoot -23.4352 -4.03836
rtoes 7.90868
lfemur 7.03819 3.29851 -17.895
ltibia 7.20809
lfoot -20.9476 9.8535
ltoes -12.6458
82
root -28.0827 16.9503 1.05274 28.8995 79.4185 25.2535
lowerback 6.73188 1.26004 -6.9458
upperback 1.86223 1.23513 -1.15126
thorax -1.96234 0.657327 2.60074
lowerneck -23.2957 4.14462 4.0328
upperneck 25.2748 5.24982 -2.25679
head 12.415 2.47983 -0.604442
rclavicle -1.49089e-016 4.87022e-015
rhumerus -34.7648 6.58596 -90.3879
rradius 33.0494
rwrist 5.88344
rhand -10.1143 -29.5362
rfingers 7.12502
rthumb 15.8736 -58.9055
lclavicle -1.49089e-016 4.87022e-015
lhumerus -24.7166 -18.38 91.5807
lradius 28.8934
lwrist -3.64587
lhand -19.5122 -25.1859
lfingers 7.12502
lthumb 6.81076 4.68455
rfemur 5.55027 -4.73495 9.61347
rtibia 9.36538
rfoot -23.6525 -4.14497
rtoes 8.17452
lfemur 6.94523 3.3696 -17.9049
ltibia 7.35052
lfoot -21.2518 9.57458
ltoes -13.4845
83
root -28.054 16.9424 1.065 30.147 79.5805 26.3284
lowerback 6.72105 1.15066 -7.32559
upperback 1.85593 1.06706 -0.99774
thorax -1.9551 0.574142 2.98707
lowerneck -23.5328 4.16911 3.88118
upperneck 25.2955 5.35371 -2.3384
head 12.4714 2.49521 -0.588012
rclavicle -1.67849e-014 -2.91716e-014
rhumerus -34.9836 6.89995 -90.1437
rradius 33.0992
rwrist 5.66612
rhand -10.0167 -29.5777
rfingers 7.12502
rthumb 15.9675 -58.9395
lclavicle -1.67849e-014 -2.91716e-014
lhumerus -24.3965 -18.4233 91.5236
lradius 29.394
lwrist -3.33111
lhand -20.1025 -24.9276
lfingers 7.12502
lthumb 6.24082 4.96052
rfemur 5.47802 -4.80098 9.60533
rtibia 9.4585
rfoot -23.96 -4.36966
rtoes 7.4325
lfemur 6.81268 3.3933 -17.9648
ltibia 7.40987
lfoot -21.3817 9.28223
ltoes -13.6429
84
root -28.0213 16.9359 1.07831 30.4659 79.8549 26.4889
lowerback 6.86949 1.02239 -7.16765
upperback 1.76726 0.888107 -1.02077
thorax -2.10897 0.491225 2.88784
lowerneck -23.6691 4.25196 3.97834
upperneck 25.2461 5.43258 -2.37097
head 12.4857 2.53191 -0.600459
rclavicle 6.41081e-015 1.98785e-015
rhumerus -35.3639 6.81418 -90.1253
rradius 33.2041
rwrist 5.54338
rhand -9.98413 -29.1458
rfingers 7.12502
rthumb 15.9989 -58.5052
lclavicle 6.41081e-015 1.98785e-015
lhumerus -24.2392 -18.8301 91.1879
lradius 30.0659
lwrist -2.88159
lhand -19.3932 -24.9931
lfingers 7.12502
lthumb 6.92563 4.87365
rfemur 5.51632 -4.7843 9.83509
rtibia 9.42403
rfoot -24.206 -4.66837
rtoes 6.65878
lfemur 6.73916 3.40238 -17.7555
ltibia 7.42558
lfoot -21.407 9.09581
ltoes -13.4921
85
root -27.9901 16.9314 1.09578 30.109 80.2408 26.0022
lowerback 7.01543 0.899742 -6.97554
upperback 1.74341 0.725307 -0.939383
thorax -2.19759 0.412268 2.87779
lowerneck -23.8415 4.30913 3.99655
upperneck 25.23 5.48588 -2.34209
head 12.5148 2.55753 -0.580181
rclavicle -3.95085e-015 -1.98785e-014
rhumerus -35.6905 6.69292 -89.9982
rradius 33.3567
rwrist 5.40206
rhand -9.83935 -29.0429
rfingers 7.12502
rthumb 16.1383 -58.391
lclavicle -3.95085e-015 -1.98785e-014
lhumerus -23.8456 -19.224 90.8756
lradius 30.6131
lwrist -2.48838
lhand -19.2173 -24.632
lfingers 7.12502
lthumb 7.09539 5.22904
rfemur 5.65592 -4.81458 10.2414
rtibia 9.24328
rfoot -24.3619 -5.00773
rtoes 5.8623
lfemur 6.67051 3.34821 -17.3471
ltibia 7.49213
lfoot -21.464 8.86765
ltoes -14.1059
86
root -27.956 16.9241 1.11195 29.5529 80.5018 25.2563
lowerback 7.04658 0.817849 -6.81046
upperback 1.73254 0.625418 -0.875836
thorax -2.21553 0.362136 2.86016
lowerneck -24.07 4.30959 3.96909
upperneck 25.2399 5.47 -2.29987
head 12.5606 2.54914 -0.558565
rclavicle 4.27387e-015 -1.02374e-014
rhumerus -35.8898 6.64558 -89.8907
rradius 33.2859
rwrist 5.23508
rhand -9.75935 -29.1881
rfingers 7.12502
rthumb 16.2154 -58.5299
lclavicle 4.27387e-015 -1.02374e-014
lhumerus -23.198 -19.5405 90.5183
lradius 30.832
lwrist -2.22991
lhand -19.4012 -24.5544
lfingers 7.12502
lthumb 6.91792 5.31254
rfemur 5.64403 -4.96373 10.5692
rtibia 9.1268
rfoot -24.3746 -5.19163
rtoes 4.82007
lfemur 6.58433 3.26837 -17.0152
ltibia 7.54886
lfoot -21.6437 8.71062
ltoes -13.8669
87
root -27.9093 16.9138 1.1222 28.6765 80.4627 24.1516
lowerback 6.84587 0.803156 -6.62387
upperback 1.76092 0.636021 -0.892595
thorax -2.07353 0.361421 2.73936
lowerneck -24.3122 4.37224 4.01069
upperneck 25.1932 5.52764 -2.31071
head 12.5933 2.57195 -0.555422
rclavicle 1.54307e-014 -2.98177e-016
rhumerus -36.0253 6.70211 -89.8341
rradius 33.1297
rwrist 5.01748
rhand -9.78729 -28.8498
rfingers 7.12502
rthumb 16.1885 -58.1938
lclavicle 1.54307e-014 -2.98177e-016
lhumerus -22.8238 -19.6882 90.0331
lradius 31.5901
lwrist -2.18361
lhand -19.6419 -24.4699
lfingers 7.12502
lthumb 6.68551 5.40455
rfemur 5.48935 -5.0489 10.7291
rtibia 9.36112
rfoot -24.6616 -4.89001
rtoes 5.12281
lfemur 6.59681 3.63976 -16.7185
ltibia 7.52598
lfoot -21.7977 8.4052
ltoes -14.1394
88
root -27.85 16.9089 1.13037 28.1857 80.2217 23.5541
lowerback 7.03196 0.904905 -6.65636
upperback 1.57537 0.741758 -0.907181
thorax -2.38067 0.426182 2.72975
lowerneck -24.4259 4.41415 4.03173
upperneck 25.2788 5.57196 -2.29054
head 12.6515 2.59468 -0.540427
rclavicle -3.10601e-014 1.94809e-014
rhumerus -36.7785 6.69959 -89.7266
rradius 33.3136
rwrist 4.86944
rhand -9.8927 -28.5526
rfingers 7.12502
rthumb 16.087 -57.9049
lclavicle -3.10601e-014 1.94809e-014
lhumerus -22.6819 -20.2189 89.7726
lradius 32.1603
lwrist -2.07271
lhand -19.4251 -24.5746
lfingers 7.12502
lthumb 6.89484 5.29312
rfemur 5.53536 -4.8212 10.7272
rtibia 9.37569
rfoot -24.8918 -4.82119
rtoes 5.15295
lfemur 7.02046 3.64159 -16.7685
ltibia 7.01526
lfoot -21.886 8.53863
ltoes -14.4482
89
root -27.7924 16.9051 1.14076 29.0973 80.062 24.3511
lowerback 6.83024 0.905355 -6.83714
upperback 1.68399 0.752439 -0.990794
thorax -2.15691 0.424424 2.74611
lowerneck -24.6918 4.45994 4.06403
upperneck 25.1318 5.5979 -2.29392
head 12.6469 2.60266 -0.538971
rclavicle -7.23079e-015 7.55382e-015
rhumerus -37.0887 6.72442 -89.625
rradius 33.4964
rwrist 4.66647
rhand -10.0361 -28.4646
rfingers 7.12502
rthumb 15.9488 -57.8279
lclavicle -7.23079e-015 7.55382e-015
lhumerus -21.9706 -20.638 89.2179
lradius 32.6549
lwrist -2.1438
lhand -19.2315 -24.4725
lfingers 7.12502
lthumb 7.08172 5.38902
rfemur 5.70156 -4.57837 10.5604
rtibia 9.1939
rfoot -25.01 -5.01446
rtoes 4.93437
lfemur 7.49639 2.82349 -17.2874
ltibia 6.22622
lfoot -22.0237 9.30168
ltoes -13.9957
